<?xml version="1.0" standalone="no"?>
<!DOCTYPE svg PUBLIC "-//W3C//DTD SVG 20010904//EN"
 "http://www.w3.org/TR/2001/REC-SVG-20010904/DTD/svg10.dtd">
<svg version="1.0" xmlns="http://www.w3.org/2000/svg"
 width="170.000000pt" height="41.000000pt" viewBox="0 0 170.000000 41.000000"
 preserveAspectRatio="xMidYMid meet">

<g transform="translate(0.000000,41.000000) scale(0.100000,-0.100000)"
fill="#000000" stroke="none">
<path d="M288 307 c-42 -34 -77 -65 -77 -70 -1 -4 32 -47 72 -96 l74 -88 -1
121 c0 67 5 138 11 159 6 20 8 37 5 36 -4 0 -42 -28 -84 -62z"/>
<path d="M435 291 c-22 -8 -43 -20 -47 -25 -4 -6 -8 -40 -8 -76 l0 -65 26 55
c14 30 37 70 51 88 14 18 23 35 22 36 -2 2 -22 -4 -44 -13z"/>
<path d="M612 208 c1 -46 3 -66 5 -45 4 35 6 37 41 38 l37 2 -35 6 c-30 5 -35
10 -38 38 -3 31 -2 32 45 36 l48 3 -52 2 -53 2 2 -82z"/>
<path d="M1325 253 c30 -45 30 -47 4 -85 -12 -16 -19 -31 -16 -34 3 -3 15 9
28 27 l22 32 28 -34 c32 -38 40 -28 9 11 -26 33 -25 47 6 87 14 18 21 33 16
33 -4 0 -18 -13 -30 -30 -13 -16 -26 -30 -30 -30 -4 0 -16 14 -25 30 -10 17
-23 30 -28 30 -5 0 2 -17 16 -37z"/>
<path d="M751 180 l2 -55 7 45 c4 25 4 49 -1 55 -5 5 -8 -13 -8 -45z"/>
<path d="M846 222 c-3 -5 8 -6 25 -4 22 3 29 0 29 -12 0 -10 -9 -16 -22 -16
-13 0 -29 -4 -36 -9 -18 -11 -12 -43 8 -48 12 -4 13 -3 1 5 -21 15 -5 42 24
42 20 0 25 -5 25 -25 0 -14 5 -25 10 -25 14 0 12 74 -2 88 -14 14 -54 16 -62
4z"/>
<path d="M960 180 c0 -29 2 -51 4 -49 8 8 10 88 3 95 -4 4 -7 -17 -7 -46z"/>
<path d="M1010 222 c20 -6 26 -16 31 -52 l7 -45 -2 50 c-1 48 -2 50 -31 52
-28 2 -28 1 -5 -5z"/>
<path d="M1087 223 c22 -4 27 -14 36 -73 3 -17 5 -14 6 12 2 53 -7 68 -38 67
-23 -2 -24 -2 -4 -6z"/>
<path d="M1176 214 c-9 -8 -16 -22 -16 -30 0 -23 19 -54 33 -54 9 0 8 3 -1 9
-8 5 -12 22 -10 42 3 29 7 34 31 37 22 3 30 -1 34 -17 3 -12 9 -21 14 -21 11
0 -1 33 -15 42 -19 13 -54 9 -70 -8z"/>
<path d="M422 163 c-6 -16 -14 -41 -18 -58 -7 -33 -9 -34 56 38 l43 47 -36 0
c-28 0 -36 -5 -45 -27z"/>
</g>
</svg>
